# AST/ASF file generated using VICON BodyLanguage
# -----------------------------------------------
:version 1.10
:name VICON
:units
  mass 1.0
  length 0.45
  angle deg
:documentation
   .ast/.asf automatically generated from VICON data using
   VICON BodyBuilder and BodyLanguage model FoxedUp or BRILLIANT.MOD
:root
   order TX TY TZ RX RY RZ
   axis XYZ
   position 0 0 0  
   orientation 0 0 0 
:bonedata
  begin
     id 1 
     name lhipjoint
     direction 0.541323 -0.757556 0.364798 
     length 2.47576 
     axis 0 0 0  XYZ
  end
  begin
     id 2 
     name lfemur
     direction 0.34202 -0.939693 0  
     length 7.46493  
     axis 0 0 20  XYZ
    dof rx ry rz
    limits (-160.0 20.0)
           (-70.0 70.0)
           (-60.0 70.0)
  end
  begin
     id 3 
     name ltibia
     direction 0.34202 -0.939693 0   
     length 7.73805   
     axis 0 0 20   XYZ
    dof rx
    limits (-10.0 170.0)
  end
  begin
     id 4 
     name lfoot
     direction 0.107174 -0.294458 0.949636   
     length 2.25864   
     axis -90 7.62852e-016 20   XYZ
    dof rx rz
    limits (-45.0 90.0)
           (-70.0 20.0)
  end
  begin
     id 5 
     name ltoes
     direction 1.53606e-011 -4.21934e-011 1   
     length 1.12451   
     axis -90 7.62852e-016 20   XYZ
    dof rx
    limits (-90.0 20.0)
  end
  begin
     id 6 
     name rhipjoint
     direction -0.524745 -0.766967 0.36933   
     length 2.44538  
     axis 0 0 0  XYZ 
  end
  begin
     id 7 
     name rfemur
     direction -0.34202 -0.939693 0   
     length 7.61604   
     axis 0 0 -20   XYZ
    dof rx ry rz
    limits (-160.0 20.0)
           (-70.0 70.0)
           (-70.0 60.0)
  end
  begin
     id 8 
     name rtibia
     direction -0.34202 -0.939693 0   
     length 7.61056   
     axis 0 0 -20   XYZ
    dof rx
    limits (-10.0 170.0)
 end
 begin
     id 9 
     name rfoot
     direction -0.12616 -0.346623 0.929482   
     length 2.46372  
     axis -90 -7.62852e-016 -20   XYZ
    dof rx rz
    limits (-45.0 90.0)
           (-20.0 70.0)
  end
  begin
     id 10 
     name rtoes
     direction -1.53531e-011 -4.22004e-011 1   
     length 1.21611   
     axis -90 -7.62852e-016 -20   XYZ
    dof rx
    limits (-90.0 20.0)
  end
  begin
     id 11 
     name lowerback
     direction -0.000778023 0.997293 -0.0735223   
     length 2.06139   
     axis 0 0 0   XYZ
    dof rx ry rz
    limits (-20.0 45.0)
           (-30.0 30.0)
           (-30.0 30.0)
  end
  begin
     id 12 
     name upperback
     direction 0.0222598 0.999722 -0.0078355   
     length 2.06383   
     axis 0 0 0   XYZ
    dof rx ry rz
    limits (-20.0 45.0)
           (-30.0 30.0)
           (-30.0 30.0)
  end
  begin
     id 13 
     name thorax
     direction 0.0219654 0.999405 0.0265994   
     length 2.07163   
     axis 0 0 0   XYZ
    dof rx ry rz
    limits (-20.0 45.0)
           (-30.0 30.0)
           (-30.0 30.0)
  end
  begin
     id 14 
     name lowerneck
     direction 0.0213282 0.988147 0.15202   
     length 1.75969   
     axis 0 0 0   XYZ
    dof rx ry rz
    limits (-20.0 45.0)
           (-30.0 30.0)
           (-30.0 30.0)
  end
  begin
     id 15 
     name upperneck
     direction -0.0546456 0.982624 -0.177379   
     length 1.79244   
     axis 0 0 0   XYZ
    dof rx ry rz
    limits (-20.0 45.0)
           (-30.0 30.0)
           (-30.0 30.0)
  end
  begin
     id 16
     name head
     direction -0.0199987 0.996855 -0.076686  
     length 1.80555  
     axis 0 0 0   XYZ
    dof rx ry rz
    limits (-20.0 45.0)
           (-30.0 30.0)
           (-30.0 30.0)
  end
  begin
     id 17 
     name lclavicle
     direction 0.929565 0.363219 -0.063096  
     length 3.55722  
     axis 0 0 0   XYZ
    dof ry rz
    limits (-20.0 10.0)
           (0.0 20.0)
  end
  begin
     id 18 
     name lhumerus
     direction 1 -4.48993e-011 -2.36203e-027   
     length 4.92785   
     axis 180 -30 -90   XYZ
    dof rx ry rz
    limits (-60.0 90.0)
           (-90.0 90.0)
           (-90.0 90.0)
  end
  begin
     id 19
     name lradius
     direction 1 -4.48947e-011 2.02997e-027   
     length 3.44052   
     axis 180 -30 -90   XYZ
    dof rx
    limits (-10.0 170.0)
  end
  begin
     id 20
     name lwrist
     direction 1 -4.48962e-011 1.45991e-027   
     length 1.72026   
     axis 1.49639e-024 90 90   XYZ
    dof ry
    limits (-180.0 0.0)
 end
  begin
     id 21 
     name lhand
     direction 1 -4.48984e-011 2.91906e-027   
     length 0.654326   
     axis -1.863e-015 90 90   XYZ
    dof rx rz
    limits (-90.0 90.0)
           (-45.0 45.0)
  end
  begin
     id 22 
     name lfingers
     direction 1 -4.48961e-011 5.83968e-027   
     length 0.527534   
     axis -3.72598e-015 90 90   XYZ
    dof rx
    limits (0.0 90.0)
  end
  begin
     id 23
     name lthumb
     direction 0.707107 -6.34963e-011 0.707107   
     length 0.757437   
     axis -90 45 -6.68868e-015   XYZ
    dof rx rz
    limits (-45.0 45.0)
           (-45.0 45.0)
  end
  begin
     id 24 
     name rclavicle
     direction -0.902944 0.422599 -0.0781198   
     length 3.54432  
     axis 0 0 0   XYZ 
    dof ry rz
    limits (-10.0 20.0)
           (-20.0 0.0)
  end
  begin
     id 25 
     name rhumerus
     direction -1 -4.48953e-011 -4.75835e-028  
     length 5.09181   
     axis 180 30 90   XYZ
    dof rx ry rz
    limits (-90.0 60.0)
           (-90.0 90.0)
           (-90.0 90.0)
  end
  begin
     id 26 
     name rradius
     direction -1 -4.48986e-011 -3.25889e-027   
     length 3.49865   
     axis 180 30 90   XYZ
    dof rx
    limits (-10.0 170.0)
  end
  begin
     id 27 
     name rwrist
     direction -1 -4.48963e-011 1.45989e-027   
     length 1.74933   
     axis 1.49639e-024 -90 -90   XYZ
    dof ry
    limits (-180.0 0.0)
  end
  begin
     id 28
     name rhand
     direction -1 -4.49003e-011 2.91844e-027   
     length 0.66641   
     axis -1.863e-015 -90 -90   XYZ
    dof rx rz
    limits (-90.0 90.0)
           (-45.0 45.0)
  end
  begin
     id 29
     name rfingers
     direction -1 -4.48973e-011 5.83886e-027   
     length 0.537277   
     axis -3.72598e-015 -90 -90   XYZ
    dof rx
    limits (0.0 90.0)
  end
  begin
     id 30
     name rthumb
     direction -0.707107 -6.34976e-011 0.707107   
     length 0.771425   
     axis -90 -45 6.68868e-015   XYZ
    dof rx rz
    limits (-45.0 45.0)
           (-45.0 45.0)
  end
:hierarchy
  begin
    root lhipjoint rhipjoint lowerback
    lhipjoint lfemur
    lfemur ltibia
    ltibia lfoot
    lfoot ltoes
    rhipjoint rfemur
    rfemur rtibia
    rtibia rfoot
    rfoot rtoes
    lowerback upperback
    upperback thorax
    thorax lowerneck lclavicle rclavicle
    lowerneck upperneck
    upperneck head
    lclavicle lhumerus
    lhumerus lradius
    lradius lwrist
    lwrist lhand lthumb
    lhand lfingers
    rclavicle rhumerus
    rhumerus rradius
    rradius rwrist
    rwrist rhand rthumb
    rhand rfingers
  end

#!OML:ASF H:\LiuWeirdWalks\Patient Classification 1\Patient 1\Session 1\male.ASF
:FULLY-SPECIFIED
:DEGREES
26
root 0.0524276 17.9201 -29.7551 2.93403 3.90614 -0.773241
lowerback 1.12446 0.139465 -1.3041
upperback -2.65057 0.197694 1.59443
thorax -3.36584 0.156527 2.36489
lowerneck -19.2774 -1.83707 3.63859
upperneck 21.6531 -2.55675 -4.47769
head 9.95877 -1.41772 -2.54315
rclavicle -1.59028e-015 -2.10712e-014
rhumerus -39.1452 -14.2616 -71.3919
rradius 24.9871
rwrist -4.66731
rhand -18.3814 1.75919
rfingers 7.12502
rthumb 7.90224 -28.0731
lclavicle -1.59028e-015 -2.10712e-014
lhumerus -37.892 1.51553 81.3409
lradius 29.0802
lwrist 6.36944
lhand -12.3908 -0.5583
lfingers 7.12502
lthumb 13.6804 28.9721
rfemur -9.28723 -1.24404 20.2087
rtibia 30.5836
rfoot -15.2635 -24.1455
rtoes -2.30143
lfemur -7.21208 -1.88905 -18.9493
ltibia 25.6524
lfoot -12.6076 16.4263
ltoes -6.85322
27
root 0.0531489 17.9208 -29.7556 2.95058 3.88247 -0.802167
lowerback 1.16868 0.288801 -1.2107
upperback -2.66102 0.394809 1.43027
thorax -3.40936 0.250495 2.13476
lowerneck -19.1897 -2.14678 3.46875
upperneck 21.6855 -3.03347 -4.08573
head 9.94163 -1.60418 -2.44004
rclavicle 3.08116e-015 2.78299e-015
rhumerus -39.3229 -14.7668 -71.3728
rradius 25.0853
rwrist -4.64446
rhand -18.4409 1.77494
rfingers 7.12502
rthumb 7.84482 -28.0595
lclavicle 3.08116e-015 2.78299e-015
lhumerus -37.7817 1.02333 81.2838
lradius 28.9438
lwrist 6.42985
lhand -12.4026 -0.579888
lfingers 7.12502
lthumb 13.669 28.9512
rfemur -9.3032 -1.22678 20.2383
rtibia 30.5639
rfoot -15.2443 -24.1352
rtoes -2.29852
lfemur -7.23537 -1.89151 -18.9207
ltibia 25.6605
lfoot -12.6046 16.4497
ltoes -7.12191
28
root 0.0539851 17.9214 -29.756 2.96458 3.84594 -0.836988
lowerback 1.19168 0.302769 -1.18944
upperback -2.67148 0.414031 1.43041
thorax -3.4339 0.259824 2.12208
lowerneck -19.1388 -2.22312 3.27572
upperneck 21.713 -3.12134 -3.91912
head 9.945 -1.64033 -2.36088
rclavicle 1.46355e-014 5.96354e-016
rhumerus -39.3042 -14.731 -71.3895
rradius 25.1492
rwrist -4.69695
rhand -18.5064 1.76194
rfingers 7.12502
rthumb 7.7816 -28.0749
lclavicle 1.46355e-014 5.96354e-016
lhumerus -37.8011 1.11708 81.2203
lradius 28.8242
lwrist 6.40886
lhand -12.419 -0.628209
lfingers 7.12502
lthumb 13.6532 28.904
rfemur -9.31693 -1.19952 20.2734
rtibia 30.5416
rfoot -15.2169 -24.1232
rtoes -2.30317
lfemur -7.2547 -1.89163 -18.8878
ltibia 25.6716
lfoot -12.6065 16.4844
ltoes -7.26268
29
root 0.0548612 17.9221 -29.7561 2.97581 3.80028 -0.876451
lowerback 1.21194 0.317623 -1.16378
upperback -2.67859 0.434649 1.43305
thorax -3.45345 0.269688 2.10944
lowerneck -19.1637 -2.22547 3.24073
upperneck 21.7537 -3.12024 -3.89551
head 9.96533 -1.63957 -2.34822
rclavicle -1.26787e-014 -1.33186e-014
rhumerus -39.2763 -14.698 -71.4061
rradius 25.2148
rwrist -4.75325
rhand -18.5557 1.73877
rfingers 7.12502
rthumb 7.734 -28.0998
lclavicle -1.26787e-014 -1.33186e-014
lhumerus -37.8179 1.22905 81.1478
lradius 28.7005
lwrist 6.37008
lhand -12.4487 -0.694672
lfingers 7.12502
lthumb 13.6246 28.8394
rfemur -9.32789 -1.16533 20.3134
rtibia 30.5178
rfoot -15.1864 -24.1109
rtoes -2.31604
lfemur -7.26955 -1.89318 -18.8512
ltibia 25.6843
lfoot -12.6126 16.5287
ltoes -7.2463
30
root 0.0557899 17.9226 -29.7563 2.98423 3.74542 -0.918214
lowerback 1.22778 0.333938 -1.13511
upperback -2.68324 0.457377 1.43734
thorax -3.46803 0.280479 2.09673
lowerneck -19.1812 -2.22493 3.21007
upperneck 21.7847 -3.11477 -3.87784
head 9.98084 -1.63722 -2.33737
rclavicle -6.62201e-015 -5.96354e-016
rhumerus -39.2411 -14.6673 -71.4232
rradius 25.2829
rwrist -4.81421
rhand -18.5851 1.71528
rfingers 7.12502
rthumb 7.70564 -28.1243
lclavicle -6.62201e-015 -5.96354e-016
lhumerus -37.8366 1.35587 81.0677
lradius 28.5694
lwrist 6.30552
lhand -12.4786 -0.782549
lfingers 7.12502
lthumb 13.5958 28.7535
rfemur -9.33681 -1.12596 20.3551
rtibia 30.4939
rfoot -15.1587 -24.0956
rtoes -2.32836
lfemur -7.27914 -1.8988 -18.814
ltibia 25.6964
lfoot -12.6196 16.5861
ltoes -7.22277
31
root 0.0568462 17.9232 -29.7564 2.99306 3.68838 -0.957188
lowerback 1.24069 0.350172 -1.10713
upperback -2.68832 0.480004 1.44149
thorax -3.48138 0.291222 2.08425
lowerneck -19.2039 -2.22194 3.17918
upperneck 21.8237 -3.10593 -3.85996
head 10.0003 -1.63326 -2.32625
rclavicle 4.28629e-016 7.95139e-016
rhumerus -39.2044 -14.624 -71.4495
rradius 25.3663
rwrist -4.90749
rhand -18.5979 1.67667
rfingers 7.12502
rthumb 7.6933 -28.1634
lclavicle 4.28629e-016 7.95139e-016
lhumerus -37.8623 1.48851 80.9847
lradius 28.4398
lwrist 6.20168
lhand -12.5164 -0.847305
lfingers 7.12502
lthumb 13.5593 28.6912
rfemur -9.34739 -1.08913 20.3923
rtibia 30.4727
rfoot -15.135 -24.0747
rtoes -2.34052
lfemur -7.28651 -1.90222 -18.7806
ltibia 25.7038
lfoot -12.6251 16.6445
ltoes -7.20132
32
root 0.057966 17.9238 -29.7567 3.00229 3.63701 -0.986956
lowerback 1.25402 0.363807 -1.08594
upperback -2.69424 0.498894 1.44326
thorax -3.49569 0.300261 2.0733
lowerneck -19.2255 -2.21936 3.14702
upperneck 21.8665 -3.09737 -3.8415
head 10.021 -1.62942 -2.31483
rclavicle -1.89529e-014 -7.35503e-015
rhumerus -39.1685 -14.5757 -71.4794
rradius 25.4589
rwrist -5.01417
rhand -18.5875 1.65841
rfingers 7.12502
rthumb 7.70332 -28.1813
lclavicle -1.89529e-014 -7.35503e-015
lhumerus -37.898 1.6184 80.9032
lradius 28.3242
lwrist 6.08447
lhand -12.5552 -0.87548
lfingers 7.12502
lthumb 13.5219 28.6655
rfemur -9.35969 -1.06055 20.4189
rtibia 30.4568
rfoot -15.1102 -24.0537
rtoes -2.3632
lfemur -7.29057 -1.9077 -18.7571
ltibia 25.7034
lfoot -12.6271 16.6986
ltoes -7.18964
33
root 0.0592566 17.9243 -29.7568 3.00964 3.59623 -0.995232
lowerback 1.26846 0.373746 -1.08161
upperback -2.69995 0.512121 1.43817
thorax -3.51026 0.306825 2.06497
lowerneck -19.2441 -2.21806 3.11481
upperneck 21.9108 -3.09022 -3.82403
head 10.0416 -1.62634 -2.3039
rclavicle 1.07406e-014 7.7526e-015
rhumerus -39.1322 -14.5243 -71.5139
rradius 25.5566
rwrist -5.12967
rhand -18.5641 1.65493
rfingers 7.12502
rthumb 7.72593 -28.1839
lclavicle 1.07406e-014 7.7526e-015
lhumerus -37.9414 1.73981 80.8237
lradius 28.2189
lwrist 5.95929
lhand -12.5937 -0.90002
lfingers 7.12502
lthumb 13.4849 28.6434
rfemur -9.36957 -1.04837 20.4201
rtibia 30.4482
rfoot -15.0901 -24.0268
rtoes -2.38944
lfemur -7.28677 -1.91241 -18.7572
ltibia 25.6932
lfoot -12.6251 16.7419
ltoes -7.17918
34
root 0.0606855 17.9247 -29.7569 3.01521 3.57073 -0.979498
lowerback 1.28527 0.378803 -1.09825
upperback -2.70673 0.517974 1.4265
thorax -3.5271 0.310213 2.06194
lowerneck -19.2652 -2.21663 3.08202
upperneck 21.9692 -3.08277 -3.80613
head 10.0678 -1.623 -2.29309
rclavicle -4.28629e-016 -1.80894e-014
rhumerus -39.099 -14.4756 -71.5461
rradius 25.6552
rwrist -5.24278
rhand -18.544 1.66538
rfingers 7.12502
rthumb 7.74527 -28.1728
lclavicle -4.28629e-016 -1.80894e-014
lhumerus -37.9874 1.84314 80.7525
lradius 28.1235
lwrist 5.84161
lhand -12.6392 -0.885166
lfingers 7.12502
lthumb 13.441 28.6612
rfemur -9.37663 -1.0529 20.3937
rtibia 30.447
rfoot -15.0741 -23.998
rtoes -2.41937
lfemur -7.27549 -1.92246 -18.7835
ltibia 25.6736
lfoot -12.6176 16.7748
ltoes -7.1642
